<?xml version="1.0" ?><svg id="Layer_1" style="enable-background:new 0 0 750 750;" version="1.1" viewBox="0 0 750 750" xml:space="preserve" xmlns="http://www.w3.org/2000/svg" xmlns:xlink="http://www.w3.org/1999/xlink"><style type="text/css">
	.st0{fill:#414042;}
</style><g><circle class="st0" cx="618" cy="519.8" r="12.3"/><circle class="st0" cx="583" cy="519.8" r="6.6"/><circle class="st0" cx="553.7" cy="519.8" r="6.6"/><path class="st0" d="M741.8,589.8l-46.3-46.1V151.3c0-6.9-5.6-12.5-12.5-12.5H67c-6.9,0-12.5,5.6-12.5,12.5v392.4L8.2,589.8   c-3.6,3.6-4.7,9-2.7,13.6c1.9,4.7,6.5,7.7,11.6,7.7h716c5.1,0,9.6-3.1,11.6-7.7C746.5,598.8,745.4,593.4,741.8,589.8z M79.5,163.8   h591v372.6h-591V163.8z M47.3,586.2l24.9-24.8h605.7l24.9,24.8H47.3z"/><path class="st0" d="M644.2,178.1H105.8c-6.9,0-12.5,5.6-12.5,12.5v298.3c0,6.9,5.6,12.5,12.5,12.5h538.4c6.9,0,12.5-5.6,12.5-12.5   V190.6C656.7,183.7,651.1,178.1,644.2,178.1z M631.7,476.4H118.3V203.1h513.4V476.4z"/></g></svg>